<?xml version="1.0" encoding="UTF-8"?>
<svg width="35px" height="33px" viewBox="0 0 35 33" version="1.1" xmlns="http://www.w3.org/2000/svg" xmlns:xlink="http://www.w3.org/1999/xlink">
    <!-- Generator: Sketch 62 (91390) - https://sketch.com -->
    <title>noun_History_1295912</title>
    <desc>Created with Sketch.</desc>
    <g id="Page-1" stroke="none" stroke-width="1" fill="none" fill-rule="evenodd">
        <g id="Open" transform="translate(-199.000000, -718.000000)" fill="#C5C8CE" fill-rule="nonzero">
            <g id="Group-7" transform="translate(199.000000, 718.000000)">
                <g id="noun_History_1295912">
                    <g id="Group">
                        <path d="M16.94976,15.2956407 C16.390072,15.5201225 16,16.0098298 16,16.5814161 C16,17.3649476 16.7293041,18 17.6291242,18 C18.2891422,18 18.8542292,17.6572049 19.110228,17.1659306 C19.1106779,17.1659306 19.1115777,17.1659306 19.1124775,17.1659306 C19.7666467,17.1678895 20.6381224,17.1710236 21.5095981,17.1741577 C22.3815237,17.1765083 23.2529994,17.1788589 23.9067187,17.1816013 C23.9481104,17.1827766 23.9881524,17.1780754 24.0272945,17.1874777 C24.0668866,17.2011895 24.1046791,17.1996225 24.1424715,17.1725906 C24.2171566,17.1279293 24.2877924,17.0848351 24.354829,17.0452668 C24.4880024,16.9680889 24.6036293,16.8881687 24.6994601,16.8239191 C24.8906719,16.6930693 25,16.6053138 25,16.6053138 C25,16.6053138 24.8915717,16.5171665 24.7017097,16.3847496 C24.6072286,16.3201083 24.4916017,16.2390128 24.3588782,16.1614431 C24.2922915,16.1206995 24.2207558,16.077997 24.1469706,16.0321604 C24.110078,16.0047368 24.0722855,16.0031697 24.0326935,16.0164898 C23.9931014,16.0247169 23.9526095,16.0200157 23.9116677,16.021191 C23.2583983,16.0188404 22.3864727,16.016098 21.514997,16.0133557 C20.6430714,16.0106133 19.7715957,16.0074792 19.1178764,16.0055203 C19.1169766,16.0055203 19.1160768,16.0055203 19.1160768,16.0055203 C18.9545591,15.6913242 18.6670666,15.4398105 18.3084883,15.2956407 C18.3066887,15.2827124 18.3066887,15.2701759 18.3035393,15.2572477 C18.2909418,15.203184 18.2958908,15.1483368 18.294991,15.0923143 C18.294991,14.1932118 18.294991,12.9940167 18.294991,11.7952133 C18.294991,10.59641 18.294991,9.3972149 18.294991,8.4981124 C18.2967906,8.44208989 18.2913917,8.38685092 18.3017397,8.33357077 C18.3161368,8.27950709 18.3143371,8.22740224 18.2832933,8.17608092 C18.2315537,8.07343828 18.1816137,7.97628036 18.1361728,7.88499893 C18.0475405,7.70204431 17.9562088,7.54298739 17.8815237,7.41174585 C17.7303539,7.14965453 17.6291242,7 17.6291242,7 C17.6291242,7 17.5283443,7.1500463 17.3771746,7.41252938 C17.3033893,7.54416269 17.2111578,7.7032196 17.1220756,7.88578246 C17.0752849,7.97706389 17.0262448,8.07422181 16.9740552,8.17686445 C16.9430114,8.22818577 16.9416617,8.28068238 16.9565087,8.3343543 C16.9664067,8.38802621 16.9614577,8.44287342 16.9628074,8.49889593 C16.9628074,9.39799843 16.9628074,10.5971935 16.9628074,11.7959969 C16.9628074,12.9948002 16.9628074,14.1939953 16.9628074,15.0930978 C16.9614577,15.1495121 16.9673065,15.2043593 16.9547091,15.2580312 C16.9515597,15.2705677 16.9520096,15.2831042 16.94976,15.2956407 Z" id="Path"></path>
                        <path d="M18.2037624,0 C9.79724542,0 2.80707122,6.178425 1.58934399,14.1087375 L0,14.1087375 L0.89481956,15.631275 L1.78963912,17.1538125 L2.68487859,15.631275 L3.57969815,14.1087375 L2.0071504,14.1087375 C3.21521979,6.397875 10.0214752,0.40755 18.2037624,0.40755 C27.236779,0.40755 34.5859727,7.6267125 34.5859727,16.5 C34.5859727,25.3737 27.236779,32.593275 18.2037624,32.593275 C14.3918562,32.593275 10.8822824,31.3038 8.09620645,29.1501375 L7.43485459,29.1501375 C10.352781,31.5508875 14.1088396,33 18.2037624,33 C27.4656277,33 35,25.5985125 35,16.5 C35,7.4019 27.4652078,0 18.2037624,0 Z" id="Path"></path>
                    </g>
                </g>
            </g>
        </g>
    </g>
</svg>