<?xml version="1.0" encoding="UTF-8"?>
<svg width="36px" height="29px" viewBox="0 0 36 29" version="1.1" xmlns="http://www.w3.org/2000/svg" xmlns:xlink="http://www.w3.org/1999/xlink">
    <!-- Generator: Sketch 62 (91390) - https://sketch.com -->
    <title>noun_stack_1670274</title>
    <desc>Created with Sketch.</desc>
    <g id="Page-1" stroke="none" stroke-width="1" fill="none" fill-rule="evenodd">
        <g id="Open" transform="translate(-198.000000, -627.000000)" fill="#C5C8CE" fill-rule="nonzero">
            <g id="Group-6" transform="translate(198.000000, 627.000000)">
                <g id="noun_stack_1670274">
                    <path d="M0.708333333,21.4522384 C0.708333333,21.6466151 0.82836965,21.8215259 1.01162731,21.8943548 L18.026753,28.6559821 C18.1432354,28.7022318 18.2734216,28.7022318 18.389904,28.6559821 L35.4050394,21.8943548 C35.5883303,21.8215633 35.7083333,21.6466339 35.7083333,21.4522408 C35.7083333,21.2578476 35.5883303,21.0829183 35.4050394,21.0101267 L28.0098991,18.0714843 L35.4050394,15.1327274 C35.5883303,15.0599359 35.7083333,14.8850066 35.7083333,14.6906134 C35.7083333,14.4962203 35.5883303,14.3212909 35.4050394,14.2484994 L28.0100154,11.309795 L35.4050394,8.37109535 C35.5883303,8.29830382 35.7083333,8.12337448 35.7083333,7.92898134 C35.7083333,7.7345882 35.5883303,7.55965885 35.4050394,7.48686732 L18.3899137,0.725239996 C18.2734006,0.67914583 18.1432757,0.67914583 18.0267627,0.725239996 L1.01162731,7.48686732 C0.828336356,7.55965885 0.708333333,7.7345882 0.708333333,7.92898134 C0.708333333,8.12337448 0.828336356,8.29830382 1.01162731,8.37109535 L8.40659306,11.3097664 L1.01162731,14.2484947 C0.828336356,14.3212862 0.708333333,14.4962155 0.708333333,14.6906087 C0.708333333,14.8850018 0.828336356,15.0599312 1.01162731,15.1327227 L8.40662215,18.0714223 L1.01162731,21.010122 C0.82836965,21.0829508 0.708333333,21.2578616 0.708333333,21.4522384 L0.708333333,21.4522384 Z M18.2083333,1.68164182 L33.9294246,7.92898372 L18.2083333,14.1763256 L2.48724204,7.92898372 L18.2083333,1.68164182 Z M9.63708816,11.8493367 C9.65385386,11.8398927 9.66999444,11.8294139 9.68541294,11.817963 L18.0267336,15.1327036 C18.143216,15.1789533 18.2734022,15.1789533 18.3898846,15.1327036 L26.7158647,11.8240661 L33.9294246,14.690611 L18.2083333,20.9379529 L2.48724204,14.690611 L9.63708816,11.8493367 Z M9.70077291,18.5856744 L18.026753,21.8943548 C18.1432354,21.9406045 18.2734216,21.9406045 18.389904,21.8943548 L26.7620173,18.5673794 C26.8043901,18.60753 26.8539146,18.6396694 26.9081165,18.6621919 L33.9294246,21.4522384 L18.2083333,27.6995803 L2.48724204,21.4522384 L9.70077291,18.5856744 Z" id="Shape"></path>
                </g>
            </g>
        </g>
    </g>
</svg>