<?xml version="1.0" encoding="UTF-8"?>
<svg width="35px" height="42px" viewBox="0 0 35 42" version="1.1" xmlns="http://www.w3.org/2000/svg" xmlns:xlink="http://www.w3.org/1999/xlink">
    <!-- Generator: Sketch 62 (91390) - https://sketch.com -->
    <title>Boli Logo</title>
    <desc>Created with Sketch.</desc>
    <g id="Page-1" stroke="none" stroke-width="1" fill="none" fill-rule="evenodd">
        <g id="Open" transform="translate(-199.000000, -129.000000)" fill="#7E8798">
            <g id="Boli-Logo" transform="translate(199.000000, 129.000000)">
                <path d="M31.2195595,21.7087192 L27.2475854,28.1184228 C27.001312,28.5156625 26.5709849,28.7569146 26.1084078,28.7569146 L25.4272467,28.7569146 C24.9643438,28.7569146 24.5340167,28.5156625 24.2877432,28.1184228 L20.3157692,21.7087192 C20.0571169,21.2893372 20.0571169,20.7562693 20.3157692,20.3368873 L24.2877432,13.9275142 C24.5340167,13.5299441 24.9643438,13.288692 25.4272467,13.288692 L26.105476,13.288692 C26.5700077,13.288692 27.0019635,13.5309355 27.2492142,13.9298276 L31.2195595,20.3368873 C31.4801663,20.7562693 31.4801663,21.2893372 31.2195595,21.7087192 L31.2195595,21.7087192 Z M22.5139879,31.2375145 L18.5436427,37.6445742 C18.296392,38.0434663 17.8644361,38.2857098 17.4002302,38.2857098 L16.7242812,38.2857098 C16.2600752,38.2857098 15.8281194,38.0434663 15.5808687,37.6445742 L11.6105234,31.2375145 C11.3515454,30.8181325 11.3515454,30.2847341 11.6105234,29.8656826 L15.7372328,23.2061344 C15.8258391,23.063366 15.9561425,22.9592641 16.1040369,22.8934982 C16.1128324,22.8934982 16.1213021,22.896803 16.1304233,22.896803 L17.994088,22.896803 C18.0032093,22.896803 18.011679,22.8934982 18.0204745,22.8934982 C18.1686946,22.9592641 18.2986723,23.063366 18.3872786,23.2061344 L22.5139879,29.8656826 C22.7749205,30.2847341 22.7749205,30.8181325 22.5139879,31.2375145 L22.5139879,31.2375145 Z M9.83676812,28.1180923 C9.59049465,28.5156625 9.1601676,28.7569146 8.6972647,28.7569146 L8.01870964,28.7569146 C7.5545037,28.7569146 7.12254786,28.5146711 6.87529712,28.115779 L2.90495189,21.7087192 C2.6462996,21.2893372 2.6462996,20.7562693 2.90495189,20.3368873 L6.87660015,13.9275142 C7.12319938,13.5299441 7.55352643,13.288692 8.01610357,13.288692 L8.69465863,13.288692 C9.15886457,13.288692 9.59082041,13.530605 9.83807115,13.9294971 L13.8084164,20.3368873 C14.069349,20.7562693 14.069349,21.2893372 13.8084164,21.7087192 L9.83676812,28.1180923 Z M11.6105234,10.7624855 L15.5808687,4.35542581 C15.8281194,3.95653371 16.2600752,3.71429021 16.7242812,3.71429021 L17.4002302,3.71429021 C17.8644361,3.71429021 18.296392,3.95653371 18.5436427,4.35542581 L22.5139879,10.7624855 C22.7749205,11.1818675 22.7749205,11.7149354 22.5139879,12.1343174 L18.3872786,18.7938656 C18.2986723,18.936634 18.1686946,19.0407359 18.0204745,19.1065018 C18.011679,19.1061714 18.0032093,19.103197 17.994088,19.103197 L16.1304233,19.103197 C16.1213021,19.103197 16.1128324,19.1061714 16.1040369,19.1065018 C15.9561425,19.0407359 15.8258391,18.936634 15.7372328,18.7938656 L11.6105234,12.1343174 C11.3515454,11.7149354 11.3515454,11.1818675 11.6105234,10.7624855 L11.6105234,10.7624855 Z M33.837681,20.0073965 L27.7287308,10.1524153 C27.5062377,9.7921896 27.1169563,9.57440179 26.6996596,9.57440179 L25.7178233,9.57473227 C25.0223288,9.57473227 24.3753723,9.21219322 24.0053106,8.61468128 L19.023485,0.578013487 C18.8006662,0.217787815 18.4113847,0 17.994088,0 L16.1304233,0 C15.7131266,0 15.3238452,0.217787815 15.1013521,0.578013487 L10.1315796,8.59782669 C9.75467696,9.20558358 9.09664469,9.57473227 8.38909711,9.57440179 L7.4248518,9.57440179 C7.00755509,9.57440179 6.61827362,9.7921896 6.39578053,10.1524153 L0.288784956,20.007066 C-0.0962616521,20.6277117 -0.0962616521,21.4175643 0.288784956,22.0385405 L6.39578053,31.8931913 C6.61827362,32.253417 7.00755509,32.4712048 7.4248518,32.4712048 L8.3011423,32.4702133 C9.08035676,32.4695524 9.80516954,32.8757151 10.2198602,33.5449417 L15.1013521,41.4219865 C15.3238452,41.7822122 15.7131266,42 16.1304233,42 L17.994088,42 C18.4113847,42 18.8006662,41.7822122 19.023485,41.4219865 L23.9082345,33.5413063 C24.3209706,32.8753846 25.0422001,32.4712048 25.8175054,32.4712048 L26.0540061,32.4712048 L26.6996596,32.4712048 C27.1169563,32.4712048 27.5062377,32.253417 27.7287308,31.8931913 L33.837681,22.0385405 C34.220773,21.4178948 34.220773,20.6280422 33.837681,20.0073965 L33.837681,20.0073965 Z" id="Fill-1"></path>
            </g>
        </g>
    </g>
</svg>