<?xml version="1.0" encoding="UTF-8"?>
<svg width="41px" height="35px" viewBox="0 0 41 35" version="1.1" xmlns="http://www.w3.org/2000/svg" xmlns:xlink="http://www.w3.org/1999/xlink">
    <title>noun-community-network-619319</title>
    <g id="Page-1" stroke="none" stroke-width="1" fill="none" fill-rule="evenodd">
        <g id="Wallet" transform="translate(-196.000000, -623.000000)" fill="#CACCD1" fill-rule="nonzero">
            <g id="Group-6" transform="translate(187.500000, 623.000000)">
                <g id="noun-community-network-619319" transform="translate(8.500000, 0.000000)">
                    <path d="M39.0957773,27.5558303 C38.4400558,27.1395851 37.6800624,26.9224996 36.9077753,26.9224996 C35.6413697,26.9224996 34.4730298,27.4855986 33.6939523,28.4652152 L33.6421362,28.5293695 L33.5641037,28.4913636 L25.635942,23.8765266 L25.635942,23.7612899 C25.6421106,23.735446 25.6421106,23.7162912 25.6421106,23.6910551 C25.6421106,22.3024554 25.0971196,20.9899017 24.1098538,19.9847236 L24.0512521,19.9269542 L24.1030682,19.8628 L28.0768608,14.2494788 L28.1548933,14.2944776 C28.8173974,14.7107228 29.5706083,14.9278083 30.3234718,14.9278083 C31.583087,14.9278083 32.7582172,14.3707961 33.5372947,13.3914752 C34.9397448,11.6508218 34.6414418,9.10285019 32.8686162,7.72039949 C32.1481254,7.15730049 31.245084,6.8498782 30.3296463,6.8498782 C29.0700311,6.8498782 27.8949008,7.4068904 27.1158233,8.37951736 C26.4338877,9.22474185 26.1285339,10.2804357 26.2584196,11.3558222 C26.3620518,12.2649503 26.7842949,13.1034808 27.4791875,13.7626765 L27.5377893,13.8204459 L27.4921421,13.8906807 L23.5374573,19.4848541 L23.4532566,19.4270848 C22.3623744,18.6207785 21.0311444,18.2555705 19.6679364,18.4094529 C19.5766453,18.422527 19.4862701,18.4286076 19.394979,18.4474588 C19.3036879,18.4605329 19.2133127,18.4733028 19.1220216,18.4924575 C19.0116069,18.5183015 18.8947097,18.5435376 18.784295,18.5754622 L18.6930039,18.6013061 L18.6930039,18.5952252 L18.6667875,18.5122205 L14.8891263,7.71243255 L14.9671588,7.67442664 C16.8760447,6.79721143 17.7985097,4.66620894 17.1166294,2.72030119 C16.5454164,1.09453419 14.9933728,0 13.2470612,0 C12.7924374,0 12.3448883,0.0702348158 11.9094356,0.218003937 C10.8771401,0.5700887 10.0461873,1.29953946 9.56533375,2.26603292 C9.08511187,3.23929814 9.0132444,4.33383233 9.37040252,5.35123073 C9.94161547,6.98369166 11.4936591,8.07822585 13.247077,8.07822585 C13.5200344,8.07822585 13.8121154,8.04021993 14.1625147,7.96298919 L14.2467154,7.9371452 L18.0582496,18.8256666 L18.0582496,18.8317475 L17.9740489,18.8697535 C16.0781121,19.7469687 14.8505538,21.6347327 14.8505538,23.6895334 C14.8505538,24.1954694 14.9218006,24.7007828 15.071699,25.1939536 L15.0979154,25.2708777 L15.0208083,25.309188 L7.74160154,28.496507 L7.70304798,28.4195829 C7.67066262,28.3618136 7.63180112,28.3107366 7.59941575,28.2596527 C7.57998501,28.2338087 7.56703039,28.2085726 7.54759964,28.176648 C7.46956714,28.0614114 7.39832185,27.9464861 7.30702285,27.8437188 C7.20339062,27.7096302 7.09297591,27.5877074 6.97607875,27.4724785 C6.79441244,27.2803162 6.59331459,27.1203937 6.37834384,26.9863051 C6.27471161,26.9033005 6.15719859,26.8391478 6.04061726,26.7813777 C5.45614728,26.4612136 4.79426698,26.2882146 4.0993586,26.2882146 C3.56670079,26.2882146 3.04700786,26.3903748 2.55383688,26.5892232 C1.54096508,26.9984709 0.748622661,27.7668087 0.32635587,28.7652929 C-0.102053845,29.7577059 -0.108836327,30.8520065 0.306925123,31.8504907 C0.937048557,33.3801299 2.43018172,34.3725428 4.09903566,34.3725428 C4.63169348,34.3725428 5.15138641,34.2703827 5.64455739,34.0715342 C7.17065547,33.4503616 8.12494051,32.0235053 8.16410363,30.4679466 C8.16410363,30.4101773 8.17027221,30.3591003 8.17027221,30.3016338 C8.17027221,30.1863971 8.16410363,30.0714718 8.15084146,29.9562351 C8.15084146,29.9243098 8.15084146,29.8860003 8.14467288,29.854075 C8.13141032,29.7321522 8.11228751,29.6169155 8.08607112,29.4959034 C8.06664038,29.3937433 8.04042399,29.290976 8.00803862,29.1888158 L7.98860787,29.1310465 L7.99477638,29.1310465 L8.06602324,29.0991212 L15.3057511,25.9239446 L15.3443046,25.9047898 L15.3828582,25.9877945 C16.2788723,27.8245757 18.1876793,29.0090887 20.2458746,29.0090887 C21.3629708,29.0090887 22.4209275,28.6636901 23.2974391,28.0747416 C23.3949047,28.0045068 23.4923703,27.9336633 23.589828,27.8567377 C23.6872857,27.7798121 23.7847593,27.6968074 23.8757424,27.6134992 C23.9275585,27.5624191 23.9793747,27.5174181 24.0318106,27.4663419 C24.0904123,27.4085726 24.1554902,27.3444191 24.2134769,27.2802664 C24.3303741,27.1583436 24.4407888,27.024255 24.544421,26.8898706 C24.6480532,26.7487923 24.7455188,26.6080175 24.83681,26.4675464 C24.8753635,26.3906223 24.9210107,26.320389 24.9666562,26.2434634 C25.2325232,25.7825246 25.4212799,25.2832747 25.5316947,24.7457371 L25.557911,24.6177353 L33.2846511,29.1115368 L33.2460976,29.1884609 C33.2137122,29.2526151 33.1810189,29.3225495 33.1618969,29.3867022 C33.09065,29.553015 33.0382172,29.7260218 32.9931875,29.8987172 C32.5061753,31.5822388 33.1686872,33.406177 34.7142326,34.3727483 C35.3699542,34.7826032 36.1299476,35 36.9022347,35 C38.3179497,35 39.6099376,34.3025166 40.3628011,33.1243006 C41.5758311,31.2422186 41.0043339,28.7460082 39.095448,27.5556575 L39.0957773,27.5558303 Z M30.3164496,8.48126421 C31.6540752,8.48126421 32.7511951,9.55665066 32.7511951,10.8814247 C32.7511951,12.2061986 31.6540752,13.2815851 30.3164496,13.2815851 C28.9725864,13.2815851 27.8817042,12.2061986 27.8817042,10.8814247 C27.8820126,9.55665066 28.9729022,8.48126421 30.3164496,8.48126421 Z M13.2268041,6.43261253 C11.8829409,6.43261253 10.7920587,5.35722607 10.7920587,4.03245208 C10.7920587,2.70767809 11.8829409,1.63229163 13.2268041,1.63229163 C14.5644297,1.63229163 15.6615496,2.70767809 15.6615496,4.03245208 C15.6615496,5.35722607 14.5641928,6.43261253 13.2268041,6.43261253 Z M4.11032625,32.7023671 C2.76646297,32.7023671 1.67558078,31.6269806 1.67558078,30.3022066 C1.67558078,28.9774327 2.76646297,27.9020462 4.11032625,27.9020462 C5.44795185,27.9020462 6.54507198,28.9774327 6.54507198,30.3022066 C6.54568861,31.6269806 5.44858351,32.7023671 4.11032625,32.7023671 Z M20.2201044,27.4280231 C18.135774,27.4280231 16.4409429,25.7572667 16.4409429,23.709549 C16.4409429,21.6548261 18.135774,19.9840697 20.2201044,19.9840697 C22.2976443,19.9840697 23.9921596,21.6548261 23.9921596,23.709549 C23.9921596,25.757578 22.2976443,27.4280231 20.2201044,27.4280231 Z M36.900748,33.3426486 C35.5568847,33.3426486 34.4660025,32.2672621 34.4660025,30.9424881 C34.4660025,29.6177141 35.5568847,28.5423277 36.900748,28.5423277 C38.2383736,28.5423277 39.3354937,29.6177141 39.3354937,30.9424881 C39.3361103,32.2672621 38.2381367,33.3426486 36.900748,33.3426486 Z" id="Shape"></path>
                </g>
            </g>
        </g>
    </g>
</svg>