<?xml version="1.0" encoding="UTF-8"?>
<svg width="31px" height="31px" viewBox="0 0 31 31" version="1.1" xmlns="http://www.w3.org/2000/svg" xmlns:xlink="http://www.w3.org/1999/xlink">
    <!-- Generator: Sketch 62 (91390) - https://sketch.com -->
    <title>noun_dashboard_3511054</title>
    <desc>Created with Sketch.</desc>
    <g id="Page-1" stroke="none" stroke-width="1" fill="none" fill-rule="evenodd">
        <g id="Open" transform="translate(-201.000000, -251.000000)" fill="#C5C8CE" fill-rule="nonzero">
            <g id="Group-2" transform="translate(192.000000, 251.000000)">
                <g id="noun_dashboard_3511054" transform="translate(9.000000, 0.000000)">
                    <g id="Group">
                        <path d="M16.3611111,14.2011173 L31,14.2011173 L31,31 L16.3611111,31 L16.3611111,14.2011173 Z M0,18.877095 L14.6388889,18.877095 L14.6388889,31 L0,31 L0,18.877095 Z M17.3944444,15.2402235 L17.3944444,29.9608939 L29.9666667,29.9608939 L29.9666667,15.2402235 L17.3944444,15.2402235 Z M1.03333333,19.9162011 L1.03333333,29.9608939 L13.6055556,29.9608939 L13.6055556,19.9162011 L1.03333333,19.9162011 Z M14.6388889,0 L14.6388889,16.7988827 L0,16.7988827 L0,0 L14.6388889,0 Z M13.6055556,1.03910615 L1.03333333,1.03910615 L1.03333333,15.7597765 L13.6055556,15.7597765 L13.6055556,1.03910615 Z M31,0 L31,12.122905 L16.3611111,12.122905 L16.3611111,0 L31,0 Z M29.9666667,1.03910615 L17.3944444,1.03910615 L17.3944444,11.0837989 L29.9666667,11.0837989 L29.9666667,1.03910615 Z" id="Shape"></path>
                    </g>
                </g>
            </g>
        </g>
    </g>
</svg>