<?xml version="1.0" encoding="UTF-8"?>
<svg width="33px" height="36px" viewBox="0 0 33 36" version="1.1" xmlns="http://www.w3.org/2000/svg" xmlns:xlink="http://www.w3.org/1999/xlink">
    <!-- Generator: Sketch 62 (91390) - https://sketch.com -->
    <title>noun_Paper_4237152</title>
    <desc>Created with Sketch.</desc>
    <g id="Page-1" stroke="none" stroke-width="1" fill="none" fill-rule="evenodd">
        <g id="Open" transform="translate(-200.000000, -529.000000)" fill="#C5C8CE" fill-rule="nonzero">
            <g id="Group-5" transform="translate(194.000000, 529.000000)">
                <g id="noun_Paper_4237152" transform="translate(6.000000, 0.000000)">
                    <g id="Group">
                        <path d="M27.1998027,0.878452364 C27.0579502,0.878452364 26.9219079,0.933322824 26.8216042,1.03099118 C26.7213004,1.12865953 26.6649518,1.26112566 26.6649544,1.399248 C26.6649712,1.68685779 26.9044256,1.92000326 27.1998027,1.92000436 C27.1999536,1.92000443 27.2001046,1.92000443 27.2002556,1.92000436 L27.2002556,1.92024 L27.5214299,1.92024 C28.0937414,1.92024 28.5378727,2.35259345 28.5378727,2.90983418 L28.5378727,33.4389207 C28.5378727,33.9962007 28.0937882,34.4285542 27.5214299,34.4285542 L22.4101488,34.4285542 C22.3912179,34.426559 22.3721911,34.4255495 22.3531497,34.4255302 C22.2112971,34.4255306 22.0752548,34.4804005 21.9749509,34.5780689 C21.8746471,34.6757372 21.818301,34.8082034 21.818301,34.9463258 C21.8185813,35.2288065 22.0500898,35.4595678 22.3401131,35.4664538 L22.3401131,35.4694778 L27.5214412,35.4694778 C28.6674851,35.4694778 29.6068089,34.5549338 29.6068089,33.43896 L29.6068089,2.90987345 C29.6068089,1.79393891 28.6675286,0.879316364 27.5214412,0.879316364 L27.2170536,0.879316364 C27.2113312,0.878951782 27.2056031,0.878452364 27.1998716,0.878452364 L27.1998027,0.878452364 Z M30.1413078,0.878452364 C29.9994548,0.878452364 29.8634117,0.933321609 29.7631072,1.03099005 C29.6628028,1.1286585 29.6064537,1.26112511 29.6064564,1.399248 C29.6064731,1.68685902 29.8459295,1.92000501 30.1413078,1.92000436 C30.1414588,1.92000443 30.1416098,1.92000443 30.1417608,1.92000436 L30.1417608,1.92024 L30.4629351,1.92024 C31.0352498,1.92024 31.4793831,2.35259345 31.4793831,2.90983418 L31.4793831,33.4389207 C31.4793831,33.9962007 31.0352966,34.4285542 30.4629351,34.4285542 L30.353777,34.4285542 L30.339741,34.4285542 L30.2165589,34.4285542 C30.1976281,34.426559 30.1786013,34.4255495 30.1595599,34.4255302 C30.0177067,34.4255298 29.8816636,34.4803993 29.781359,34.5780677 C29.6810545,34.6757362 29.6247053,34.8082029 29.624708,34.9463258 C29.6249883,35.2288065 29.8564968,35.4595678 30.1465201,35.4664538 L30.1465201,35.4694778 L30.3397531,35.4694778 L30.3537891,35.4694778 L30.4629472,35.4694778 C31.6089902,35.4694778 32.5483173,34.5549338 32.5483173,33.43896 L32.5483173,2.90987345 C32.5483173,1.79393891 31.6090386,0.879316364 30.4629472,0.879316364 L30.1585596,0.879316364 C30.1528372,0.878951782 30.1471091,0.878452364 30.1413776,0.878452364 L30.1413078,0.878452364 Z M2.42705441,1.05478691 C1.28096338,1.05478691 0.341683137,1.96937018 0.341683137,3.08530473 L0.341683137,33.6147447 C0.341683137,34.7306793 1.28101057,35.6452625 2.42705441,35.6452625 L13.8347694,35.6452625 L14.2126242,35.4928844 L26.2675481,23.7549731 L26.4242068,23.3869876 L26.4242068,3.08542255 C26.4242068,1.969488 25.4849265,1.05478691 24.3388395,1.05478691 L2.42705441,1.05478691 Z M2.42705441,2.09559273 L24.3388436,2.09559273 C24.9111538,2.09559273 25.3551758,2.52802473 25.3551758,3.08530473 L25.3551758,22.6315375 L15.226745,22.6315375 C14.0806576,22.6315375 13.1413769,23.54616 13.1413769,24.6620945 L13.1413769,34.6044567 L2.42705441,34.6044567 C1.85469618,34.6044567 1.41060843,34.1719855 1.41060843,33.6147447 L1.41060843,3.08530473 C1.41060843,2.52802473 1.85473974,2.09559273 2.42705441,2.09559273 Z M15.226745,23.6725004 L24.8405471,23.6725004 L14.2103022,34.0232204 L14.2103022,24.6620945 C14.2103022,24.1048538 14.6544335,23.6725004 15.226745,23.6725004 L15.226745,23.6725004 Z" id="Shape"></path>
                    </g>
                </g>
            </g>
        </g>
    </g>
</svg>