<?xml version="1.0" encoding="UTF-8"?>
<svg width="36px" height="32px" viewBox="0 0 36 32" version="1.1" xmlns="http://www.w3.org/2000/svg" xmlns:xlink="http://www.w3.org/1999/xlink">
    <!-- Generator: Sketch 62 (91390) - https://sketch.com -->
    <title>noun_swap_172092</title>
    <desc>Created with Sketch.</desc>
    <g id="Page-1" stroke="none" stroke-width="1" fill="none" fill-rule="evenodd">
        <g id="Open" transform="translate(-198.000000, -435.000000)" fill="#C5C8CE" fill-rule="nonzero">
            <g id="Group-4" transform="translate(198.000000, 435.000000)">
                <g id="noun_swap_172092">
                    <path d="M35.8553601,13.8615552 L30.6475764,8.61754317 C30.5554033,8.5247288 30.4171435,8.47832162 30.2788838,8.47832162 C30.140624,8.47832162 30.0023643,8.47832162 29.9101911,8.61754317 L24.7024075,13.8615552 C24.5180611,14.0471839 24.5180611,14.325627 24.7024075,14.5112557 C24.7945806,14.6040701 24.9328404,14.6504773 25.0250135,14.6504773 C25.1171867,14.6504773 25.2554464,14.6040701 25.3476196,14.5112557 L29.818018,10.0097587 L29.818018,24.9528725 C29.818018,28.1085611 27.2371694,30.7073635 24.1032819,30.7073635 C20.9693944,30.7073635 18.3885459,28.1085611 18.3885459,24.9528725 L18.3885459,7.31814198 C18.3885459,3.65197431 15.4390047,0.635507246 11.7520782,0.635507246 C8.06515169,0.635507246 5.1156105,3.60556713 5.1156105,7.31814198 L5.1156105,20.8690402 L0.783471879,16.5067647 C0.599125554,16.321136 0.322606068,16.321136 0.138259743,16.5067647 C-0.0460865811,16.6923935 -0.0460865811,16.9708366 0.138259743,17.1564653 L5.34604341,22.4004773 C5.43821657,22.4932917 5.57647631,22.5396989 5.66864947,22.5396989 C5.76082264,22.5396989 5.89908238,22.4932917 5.99125554,22.4004773 L11.1990392,17.1564653 C11.3833855,16.9708366 11.3833855,16.6923935 11.1990392,16.5067647 C11.0146929,16.321136 10.7381734,16.321136 10.5538271,16.5067647 L6.0834287,21.0082617 L6.0834287,7.31814198 C6.0834287,4.16245335 8.66427724,1.56365096 11.7981648,1.56365096 C14.9320523,1.56365096 17.5129008,4.16245335 17.5129008,7.31814198 L17.5129008,24.9528725 C17.5129008,28.6190402 20.462442,31.6355072 24.1493685,31.6355072 C27.7902084,31.6355072 30.7858362,28.6654474 30.7858362,24.9528725 L30.7858362,10.0097587 L35.2562345,14.5112557 C35.3484077,14.6040701 35.4866674,14.6504773 35.5788406,14.6504773 C35.6710138,14.6504773 35.8092735,14.6040701 35.9014467,14.5112557 C36.0397064,14.325627 36.0397064,14.0007767 35.8553601,13.8615552 Z" id="Path"></path>
                </g>
            </g>
        </g>
    </g>
</svg>