<?xml version="1.0" encoding="UTF-8"?>
<svg width="33px" height="29px" viewBox="0 0 33 29" version="1.1" xmlns="http://www.w3.org/2000/svg" xmlns:xlink="http://www.w3.org/1999/xlink">
    <!-- Generator: Sketch 62 (91390) - https://sketch.com -->
    <title>noun_Wallet_1573165</title>
    <desc>Created with Sketch.</desc>
    <g id="Page-1" stroke="none" stroke-width="1" fill="none" fill-rule="evenodd">
        <g id="Open" transform="translate(-200.000000, -344.000000)" fill="#C5C8CE" fill-rule="nonzero">
            <g id="Group-3" transform="translate(200.000000, 344.000000)">
                <g id="noun_Wallet_1573165">
                    <g id="Group">
                        <path d="M2.81707317,0.147936761 C1.26337683,0.147936761 4.02439029e-08,1.43018606 4.02439029e-08,3.00709169 L4.02439029e-08,26.2887859 C4.02439029e-08,27.6394099 1.08388902,28.7394901 2.41463415,28.7394901 L30.5853659,28.7394901 C31.916111,28.7394901 33,27.6394099 33,26.2887859 L33,7.50004944 C33,6.14942549 31.916111,5.04934521 30.5853659,5.04934521 L28.1707317,5.04934521 L28.1707317,0.556387465 C28.1707317,0.342522676 27.9790098,0.147936761 27.7682927,0.147936761 L2.81707317,0.147936761 Z M2.81707317,0.964838169 L27.3658537,0.964838169 L27.3658537,5.04934521 C19.7195122,5.04934521 10.4634146,5.04934521 2.81707317,5.04934521 C1.69535488,5.04934521 0.804878049,4.14556634 0.804878049,3.00709169 C0.804878049,1.86861704 1.69535488,0.964838169 2.81707317,0.964838169 Z M0.804878049,4.99828887 C1.31674024,5.53074521 2.02772927,5.86624662 2.81707317,5.86624662 C11.5365988,5.86624662 21.8658402,5.86624662 30.5853659,5.86624662 C31.4841329,5.86624662 32.195122,6.58785648 32.195122,7.50004944 L32.195122,11.9930031 L20.9268293,11.9930031 C20.0419866,11.9930031 19.3170732,12.7287454 19.3170732,13.6268141 L19.3170732,20.1620254 C19.3170732,21.0600859 20.0419866,21.7958282 20.9268293,21.7958282 L32.195122,21.7958282 L32.195122,26.2887859 C32.195122,27.2009789 31.4841329,27.9225887 30.5853659,27.9225887 L2.41463415,27.9225887 C1.51586707,27.9225887 0.804878049,27.2009789 0.804878049,26.2887859 L0.804878049,4.99828887 Z M20.9268293,12.8099045 L32.195122,12.8099045 L32.195122,20.9789268 L20.9268293,20.9789268 C20.4739646,20.9789268 20.1219512,20.6216549 20.1219512,20.1620254 L20.1219512,13.6268141 C20.1219512,13.1671763 20.4739646,12.8099045 20.9268293,12.8099045 Z M24.1463415,15.2478732 C23.2620622,15.2478732 22.5365854,15.9841873 22.5365854,16.8816761 C22.5365854,17.7791239 23.2620622,18.5154789 24.1463415,18.5154789 C25.0306207,18.5154789 25.7560976,17.7791239 25.7560976,16.8816761 C25.7560976,15.9841873 25.0306207,15.2478732 24.1463415,15.2478732 Z M24.1463415,16.0647746 C24.5956244,16.0647746 24.9512195,16.4256817 24.9512195,16.8816761 C24.9512195,17.3376296 24.5956244,17.6985775 24.1463415,17.6985775 C23.6970585,17.6985775 23.3414634,17.3376296 23.3414634,16.8816761 C23.3414634,16.4256817 23.6970585,16.0647746 24.1463415,16.0647746 Z" id="Shape"></path>
                    </g>
                </g>
            </g>
        </g>
    </g>
</svg>